<?xml version="1.0" encoding="UTF-8" standalone="no"?>
<!DOCTYPE svg PUBLIC "-//W3C//DTD SVG 1.1//EN"
 "http://www.w3.org/Graphics/SVG/1.1/DTD/svg11.dtd">
<!-- Generated by graphviz version 7.1.0 (0)
 -->
<!-- Title: G Pages: 1 -->
<svg width="304pt" height="569pt"
 viewBox="0.00 0.00 304.30 569.47" xmlns="http://www.w3.org/2000/svg" xmlns:xlink="http://www.w3.org/1999/xlink">
<g id="graph0" class="graph" transform="scale(1 1) rotate(0) translate(4 565.47)">
<title>G</title>
<polygon fill="white" stroke="none" points="-4,4 -4,-565.47 300.3,-565.47 300.3,4 -4,4"/>
<!-- 1 -->
<g id="node1" class="node">
<title>1</title>
<ellipse fill="none" stroke="black" cx="149.3" cy="-534.82" rx="26.8" ry="26.8"/>
<text text-anchor="middle" x="149.3" y="-531.12" font-family="Times,serif" font-size="14.00">init</text>
</g>
<!-- 2 -->
<g id="node2" class="node">
<title>2</title>
<ellipse fill="none" stroke="black" cx="149.3" cy="-422.08" rx="35.19" ry="35.19"/>
<text text-anchor="middle" x="149.3" y="-418.38" font-family="Times,serif" font-size="14.00">sleep</text>
</g>
<!-- 1&#45;&gt;2 -->
<g id="edge1" class="edge">
<title>1&#45;&gt;2</title>
<path fill="none" stroke="black" d="M149.3,-507.58C149.3,-496 149.3,-482.05 149.3,-468.85"/>
<polygon fill="black" stroke="black" points="152.8,-469.03 149.3,-459.03 145.8,-469.03 152.8,-469.03"/>
<text text-anchor="middle" x="181.8" y="-478.97" font-family="Times,serif" font-size="14.00">IsScene1</text>
</g>
<!-- 2&#45;&gt;2 -->
<g id="edge3" class="edge">
<title>2&#45;&gt;2</title>
<path fill="none" stroke="black" d="M183,-433.44C193.82,-433.32 202.39,-429.53 202.39,-422.08 202.39,-417.53 199.21,-414.35 194.27,-412.53"/>
<polygon fill="black" stroke="black" points="194.92,-409.09 184.49,-410.96 193.81,-416 194.92,-409.09"/>
<text text-anchor="middle" x="235.89" y="-418.38" font-family="Times,serif" font-size="14.00">_IsAsleep</text>
</g>
<!-- 3 -->
<g id="node3" class="node">
<title>3</title>
<ellipse fill="none" stroke="black" cx="40.3" cy="-295.68" rx="40.09" ry="40.09"/>
<text text-anchor="middle" x="40.3" y="-291.98" font-family="Times,serif" font-size="14.00">awake</text>
</g>
<!-- 2&#45;&gt;3 -->
<g id="edge2" class="edge">
<title>2&#45;&gt;3</title>
<path fill="none" stroke="black" d="M114.62,-414.4C89.57,-407.58 57.41,-394.26 41.3,-368.98 37.03,-362.29 34.81,-354.49 33.89,-346.55"/>
<polygon fill="black" stroke="black" points="37.39,-346.65 33.43,-336.83 30.4,-346.98 37.39,-346.65"/>
<text text-anchor="middle" x="88.3" y="-357.78" font-family="Times,serif" font-size="14.00">_IsNotAsleep</text>
</g>
<!-- 4 -->
<g id="node4" class="node">
<title>4</title>
<ellipse fill="none" stroke="black" cx="97.3" cy="-165.39" rx="38.99" ry="38.99"/>
<text text-anchor="middle" x="97.3" y="-161.69" font-family="Times,serif" font-size="14.00">happy</text>
</g>
<!-- 3&#45;&gt;4 -->
<g id="edge5" class="edge">
<title>3&#45;&gt;4</title>
<path fill="none" stroke="black" d="M55.7,-258.18C60.61,-246.7 66.12,-233.98 71.3,-222.39 72.87,-218.85 74.52,-215.2 76.19,-211.54"/>
<polygon fill="black" stroke="black" points="79.29,-213.19 80.28,-202.64 72.92,-210.27 79.29,-213.19"/>
<text text-anchor="middle" x="103.3" y="-226.19" font-family="Times,serif" font-size="14.00">IsNotFar</text>
</g>
<!-- 5 -->
<g id="node5" class="node">
<title>5</title>
<ellipse fill="none" stroke="black" cx="97.3" cy="-37.7" rx="37.89" ry="37.89"/>
<text text-anchor="middle" x="97.3" y="-34" font-family="Times,serif" font-size="14.00">angry</text>
</g>
<!-- 3&#45;&gt;5 -->
<g id="edge4" class="edge">
<title>3&#45;&gt;5</title>
<path fill="none" stroke="black" d="M23.54,-258.98C9.6,-224.05 -5.33,-169.9 12.3,-126.39 21.74,-103.09 40.67,-82.55 58.28,-67.23"/>
<polygon fill="black" stroke="black" points="60.18,-70.2 65.61,-61.1 55.69,-64.83 60.18,-70.2"/>
<text text-anchor="middle" x="30.8" y="-161.69" font-family="Times,serif" font-size="14.00">IsFar</text>
</g>
<!-- 4&#45;&gt;2 -->
<g id="edge10" class="edge">
<title>4&#45;&gt;2</title>
<path fill="none" stroke="black" d="M121.73,-196.21C127.11,-204.27 132.14,-213.28 135.3,-222.39 152.68,-272.61 154.24,-334.14 152.71,-375.3"/>
<polygon fill="black" stroke="black" points="149.22,-374.94 152.26,-385.09 156.21,-375.26 149.22,-374.94"/>
<text text-anchor="middle" x="177.3" y="-291.98" font-family="Times,serif" font-size="14.00">isTired</text>
</g>
<!-- 4&#45;&gt;4 -->
<g id="edge6" class="edge">
<title>4&#45;&gt;4</title>
<path fill="none" stroke="black" d="M134.84,-177.45C145.8,-177.03 154.29,-173.01 154.29,-165.39 154.29,-160.63 150.98,-157.27 145.81,-155.32"/>
<polygon fill="black" stroke="black" points="146.8,-151.94 136.33,-153.6 145.55,-158.83 146.8,-151.94"/>
<text text-anchor="middle" x="186.29" y="-161.69" font-family="Times,serif" font-size="14.00">IsNotFar</text>
</g>
<!-- 4&#45;&gt;5 -->
<g id="edge9" class="edge">
<title>4&#45;&gt;5</title>
<path fill="none" stroke="black" d="M72.81,-134.47C65.52,-122.11 60.4,-107.4 64.3,-93.39 65.65,-88.51 67.58,-83.63 69.82,-78.91"/>
<polygon fill="black" stroke="black" points="72.84,-80.69 74.44,-70.21 66.66,-77.4 72.84,-80.69"/>
<text text-anchor="middle" x="82.8" y="-97.19" font-family="Times,serif" font-size="14.00">IsFar</text>
</g>
<!-- 5&#45;&gt;2 -->
<g id="edge11" class="edge">
<title>5&#45;&gt;2</title>
<path fill="none" stroke="black" d="M132.78,-51.48C164.01,-64.84 207.49,-89.13 227.3,-126.39 271.24,-209.05 240.52,-248.84 206.3,-335.98 199.47,-353.36 188.66,-370.8 178.27,-385.32"/>
<polygon fill="black" stroke="black" points="175.58,-383.08 172.46,-393.2 181.21,-387.23 175.58,-383.08"/>
<text text-anchor="middle" x="271.3" y="-226.19" font-family="Times,serif" font-size="14.00">isTired</text>
</g>
<!-- 5&#45;&gt;4 -->
<g id="edge8" class="edge">
<title>5&#45;&gt;4</title>
<path fill="none" stroke="black" d="M103.41,-75.39C104.2,-81.39 104.87,-87.55 105.3,-93.39 105.82,-100.54 105.69,-108.07 105.19,-115.46"/>
<polygon fill="black" stroke="black" points="101.71,-115.07 104.27,-125.35 108.68,-115.72 101.71,-115.07"/>
<text text-anchor="middle" x="138.3" y="-97.19" font-family="Times,serif" font-size="14.00">IsNotFar</text>
</g>
<!-- 5&#45;&gt;5 -->
<g id="edge7" class="edge">
<title>5&#45;&gt;5</title>
<path fill="none" stroke="black" d="M133.72,-49.52C144.56,-49.17 152.99,-45.23 152.99,-37.7 152.99,-33.11 149.86,-29.85 144.96,-27.93"/>
<polygon fill="black" stroke="black" points="145.68,-24.5 135.21,-26.15 144.42,-31.39 145.68,-24.5"/>
<text text-anchor="middle" x="171.49" y="-34" font-family="Times,serif" font-size="14.00">IsFar</text>
</g>
</g>
</svg>
