<?xml version="1.0" encoding="UTF-8" standalone="no"?>
<!DOCTYPE svg PUBLIC "-//W3C//DTD SVG 1.1//EN" "http://www.w3.org/Graphics/SVG/1.1/DTD/svg11.dtd">
<!-- Generated by graphviz version 2.40.1 (20161225.0304)
 -->
<!-- Title: G Pages: 1 -->
<svg width="249pt" height="536pt" viewBox="0.00 0.00 249.48 535.50" xmlns="http://www.w3.org/2000/svg" xmlns:xlink="http://www.w3.org/1999/xlink">
<g id="graph0" class="graph" transform="scale(1 1) rotate(0) translate(4 531.5014)">
<title>G</title>
<polygon fill="#ffffff" stroke="transparent" points="-4,4 -4,-531.5014 245.4813,-531.5014 245.4813,4 -4,4"/>
<!-- 1 -->
<g id="node1" class="node">
<title>1</title>
<ellipse fill="none" stroke="#000000" cx="120.8277" cy="-503.5854" rx="23.8322" ry="23.8322"/>
<text text-anchor="middle" x="120.8277" y="-499.3854" font-family="Times,serif" font-size="14.00" fill="#000000">init</text>
</g>
<!-- 2 -->
<g id="node2" class="node">
<title>2</title>
<ellipse fill="none" stroke="#000000" cx="120.8277" cy="-395.9917" rx="30.7558" ry="30.7558"/>
<text text-anchor="middle" x="120.8277" y="-391.7917" font-family="Times,serif" font-size="14.00" fill="#000000">sleep</text>
</g>
<!-- 1&#45;&gt;2 -->
<g id="edge1" class="edge">
<title>1-&gt;2</title>
<path fill="none" stroke="#000000" d="M120.8277,-479.4393C120.8277,-466.9752 120.8277,-451.423 120.8277,-437.1336"/>
<polygon fill="#000000" stroke="#000000" points="124.3278,-437.0141 120.8277,-427.0141 117.3278,-437.0142 124.3278,-437.0141"/>
<text text-anchor="middle" x="148.4364" y="-449.0694" font-family="Times,serif" font-size="14.00" fill="#000000">FirstTime</text>
</g>
<!-- 2&#45;&gt;2 -->
<g id="edge3" class="edge">
<title>2-&gt;2</title>
<path fill="none" stroke="#000000" d="M149.9315,-406.4687C160.7775,-406.8122 169.7054,-403.3199 169.7054,-395.9917 169.7054,-391.1827 165.8605,-388.0255 160.1518,-386.5203"/>
<polygon fill="#000000" stroke="#000000" points="160.2262,-383.0108 149.9315,-385.5148 159.5407,-389.9772 160.2262,-383.0108"/>
<text text-anchor="middle" x="194.1935" y="-391.7917" font-family="Times,serif" font-size="14.00" fill="#000000">IsAsleep</text>
</g>
<!-- 3 -->
<g id="node3" class="node">
<title>3</title>
<ellipse fill="none" stroke="#000000" cx="48.8277" cy="-276.6176" rx="35.8941" ry="35.8941"/>
<text text-anchor="middle" x="48.8277" y="-272.4176" font-family="Times,serif" font-size="14.00" fill="#000000">awake</text>
</g>
<!-- 2&#45;&gt;3 -->
<g id="edge2" class="edge">
<title>2-&gt;3</title>
<path fill="none" stroke="#000000" d="M93.2955,-381.7911C80.1123,-373.5086 65.415,-361.7867 57.0801,-347.1141 52.8367,-339.6441 50.2926,-331.0142 48.8368,-322.4102"/>
<polygon fill="#000000" stroke="#000000" points="52.2985,-321.8846 47.5912,-312.3929 45.352,-322.7484 52.2985,-321.8846"/>
<text text-anchor="middle" x="82.7015" y="-334.5141" font-family="Times,serif" font-size="14.00" fill="#000000">IsAwake</text>
</g>
<!-- 4 -->
<g id="node4" class="node">
<title>4</title>
<ellipse fill="none" stroke="#000000" cx="100.8277" cy="-153.484" rx="34.7748" ry="34.7748"/>
<text text-anchor="middle" x="100.8277" y="-149.284" font-family="Times,serif" font-size="14.00" fill="#000000">happy</text>
</g>
<!-- 3&#45;&gt;4 -->
<g id="edge4" class="edge">
<title>3-&gt;4</title>
<path fill="none" stroke="#000000" d="M62.4096,-243.5795C67.3054,-231.7474 72.8971,-218.3216 78.0647,-206.1211 79.6149,-202.4611 81.2352,-198.6626 82.8661,-194.8577"/>
<polygon fill="#000000" stroke="#000000" points="86.1713,-196.0313 86.9076,-185.4621 79.7409,-193.2653 86.1713,-196.0313"/>
<text text-anchor="middle" x="93.2092" y="-210.3211" font-family="Times,serif" font-size="14.00" fill="#000000">IsFar</text>
</g>
<!-- 5 -->
<g id="node5" class="node">
<title>5</title>
<ellipse fill="none" stroke="#000000" cx="97.8277" cy="-33.0234" rx="33.0469" ry="33.0469"/>
<text text-anchor="middle" x="97.8277" y="-28.8234" font-family="Times,serif" font-size="14.00" fill="#000000">angry</text>
</g>
<!-- 3&#45;&gt;5 -->
<g id="edge5" class="edge">
<title>3-&gt;5</title>
<path fill="none" stroke="#000000" d="M29.2341,-246.3732C10.8592,-213.9493 -11.2571,-161.3947 7.0675,-118.8469 18.1011,-93.228 40.9594,-71.6872 60.9746,-56.5939"/>
<polygon fill="#000000" stroke="#000000" points="63.2974,-59.2328 69.3357,-50.527 59.1864,-53.5671 63.2974,-59.2328"/>
<text text-anchor="middle" x="32.7078" y="-149.284" font-family="Times,serif" font-size="14.00" fill="#000000">IsNotFar</text>
</g>
<!-- 4&#45;&gt;2 -->
<g id="edge10" class="edge">
<title>4-&gt;2</title>
<path fill="none" stroke="#000000" d="M104.9623,-188.0066C105.6279,-194.0402 106.2779,-200.2604 106.8277,-206.1211 111.6256,-257.258 115.7571,-316.2717 118.2634,-354.7588"/>
<polygon fill="#000000" stroke="#000000" points="114.7905,-355.292 118.9265,-365.0462 121.776,-354.8418 114.7905,-355.292"/>
<text text-anchor="middle" x="135.6545" y="-272.4176" font-family="Times,serif" font-size="14.00" fill="#000000">isTired</text>
</g>
<!-- 4&#45;&gt;4 -->
<g id="edge6" class="edge">
<title>4-&gt;4</title>
<path fill="none" stroke="#000000" d="M133.7259,-164.734C144.692,-164.734 153.4648,-160.984 153.4648,-153.484 153.4648,-148.5621 149.6867,-145.2552 143.9899,-143.5633"/>
<polygon fill="#000000" stroke="#000000" points="144.0927,-140.0475 133.7259,-142.234 143.1935,-146.9895 144.0927,-140.0475"/>
<text text-anchor="middle" x="167.8463" y="-149.284" font-family="Times,serif" font-size="14.00" fill="#000000">IsFar</text>
</g>
<!-- 4&#45;&gt;5 -->
<g id="edge9" class="edge">
<title>4-&gt;5</title>
<path fill="none" stroke="#000000" d="M75.9391,-129.0991C69.1251,-120.8389 62.6377,-111.0911 59.0675,-100.8469 54.6218,-88.0902 59.504,-74.9924 67.1281,-63.7503"/>
<polygon fill="#000000" stroke="#000000" points="70.1004,-65.6248 73.3838,-55.5515 64.5353,-61.3786 70.1004,-65.6248"/>
<text text-anchor="middle" x="84.7078" y="-88.2469" font-family="Times,serif" font-size="14.00" fill="#000000">IsNotFar</text>
</g>
<!-- 5&#45;&gt;2 -->
<g id="edge11" class="edge">
<title>5-&gt;2</title>
<path fill="none" stroke="#000000" d="M126.5537,-50.0561C148.7392,-65.0308 177.7844,-89.0615 190.8277,-118.8469 227.2409,-201.9992 175.8799,-307.8175 143.5876,-361.4582"/>
<polygon fill="#000000" stroke="#000000" points="140.4509,-359.8774 138.1953,-370.2293 146.4142,-363.5435 140.4509,-359.8774"/>
<text text-anchor="middle" x="221.6545" y="-210.3211" font-family="Times,serif" font-size="14.00" fill="#000000">isTired</text>
</g>
<!-- 5&#45;&gt;4 -->
<g id="edge8" class="edge">
<title>5-&gt;4</title>
<path fill="none" stroke="#000000" d="M108.543,-64.2841C110.324,-70.7441 111.8937,-77.5583 112.8277,-84.0469 114.0429,-92.4891 113.7062,-101.483 112.5728,-110.1021"/>
<polygon fill="#000000" stroke="#000000" points="109.1162,-109.5525 110.9214,-119.9924 116.0206,-110.7053 109.1162,-109.5525"/>
<text text-anchor="middle" x="128.2092" y="-88.2469" font-family="Times,serif" font-size="14.00" fill="#000000">IsFar</text>
</g>
<!-- 5&#45;&gt;5 -->
<g id="edge7" class="edge">
<title>5-&gt;5</title>
<path fill="none" stroke="#000000" d="M129.2176,-43.8958C140.0794,-44.0108 148.8512,-40.3867 148.8512,-33.0234 148.8512,-28.1913 145.0735,-24.9695 139.4065,-23.358"/>
<polygon fill="#000000" stroke="#000000" points="139.5599,-19.8517 129.2176,-22.1511 138.7364,-26.8031 139.5599,-19.8517"/>
<text text-anchor="middle" x="173.7313" y="-28.8234" font-family="Times,serif" font-size="14.00" fill="#000000">IsNotFar</text>
</g>
</g>
</svg>